<svg width="233" height="35" viewBox="0 0 233 35" fill="none" xmlns="http://www.w3.org/2000/svg">
<path d="M30.408 0.399998V19.936C30.408 28.816 24.6 34.336 15.336 34.336C6.024 34.336 0.0720001 28.816 0.0720001 19.936V0.399998H7.656V19.936C7.656 24.784 10.824 27.712 15.336 27.712C19.848 27.712 22.824 24.784 22.824 19.936V0.399998H30.408ZM68.5568 34H61.6448L45.3727 12.448V34H38.1247V0.399998H45.0367L61.3568 22V0.399998H68.5568V34ZM84.4969 34H76.9129V0.399998H84.4969V34ZM117.016 6.688H100.504V14.944H115.672V21.28H100.504V34H92.9197V0.399998H117.064L117.016 6.688ZM130.011 34H122.427V0.399998H130.011V34ZM159.074 34L153.746 24.4H153.026H146.018V34H138.434V0.399998H153.026C161.81 0.399998 166.802 4.624 166.802 12.064C166.802 17.248 164.594 20.992 160.514 22.912L167.666 34H159.074ZM146.018 18.064H153.026C157.202 18.064 159.602 16.144 159.602 12.304C159.602 8.56 157.202 6.688 153.026 6.688H146.018V18.064ZM199.712 6.688H181.712V13.984H197.936V20.272H181.712V27.712H200.24V34H174.128V0.399998H199.712V6.688ZM219.438 0.0639992C224.142 0.0639992 228.846 1.504 232.206 3.712L229.278 10C225.726 7.888 221.502 6.544 218.814 6.544C216.27 6.544 214.542 7.456 214.542 9.28C214.542 15.472 232.446 12.016 232.398 24.112C232.398 30.688 226.686 34.24 219.246 34.24C213.726 34.24 208.206 32.128 204.414 28.912L207.438 22.72C210.894 25.792 215.79 27.76 219.342 27.76C222.462 27.76 224.334 26.608 224.334 24.544C224.334 18.208 206.43 21.904 206.43 10C206.43 3.904 211.662 0.0639992 219.438 0.0639992Z" fill="black"/>
</svg>
