<svg width="265" height="261" viewBox="0 0 265 261" fill="none" xmlns="http://www.w3.org/2000/svg">
<rect width="265" height="261" fill="black"/>
<path d="M99.0604 32.6269L37.7172 36.7164L33.6276 98.0597" stroke="white" stroke-width="2" stroke-linecap="round" stroke-linejoin="round"/>
<path d="M32.6269 164.94L36.7164 226.283L98.0597 230.372" stroke="white" stroke-width="2" stroke-linecap="round" stroke-linejoin="round"/>
<path d="M230.373 97.0595L226.284 35.7162L164.94 31.6267" stroke="white" stroke-width="2" stroke-linecap="round" stroke-linejoin="round"/>
<path d="M166.936 230.373L228.279 226.284L232.368 164.94" stroke="white" stroke-width="2" stroke-linecap="round" stroke-linejoin="round"/>
<path d="M131.683 130.999L99.0672 163.615C92.6213 170.065 84.4072 174.459 75.4639 176.24C66.5207 178.021 57.25 177.11 48.8247 173.622C40.3993 170.133 33.1978 164.225 28.131 156.643C23.0642 149.061 20.3597 140.147 20.3597 131.028C20.3597 121.909 23.0642 112.995 28.131 105.414C33.1978 97.8319 40.3993 91.9232 48.8247 88.435C57.25 84.9467 66.5207 84.0355 75.4639 85.8167C84.4072 87.5979 92.6213 91.9915 99.0672 98.4417L131.683 130.999Z" stroke="white" stroke-width="2" stroke-linecap="round" stroke-linejoin="round"/>
<path d="M132.001 130.684L99.3851 98.0682C92.935 91.6222 88.5414 83.4081 86.7602 74.4649C84.979 65.5216 85.8902 56.251 89.3784 47.8257C92.8667 39.4003 98.7754 32.1988 106.357 27.1319C113.939 22.0651 122.853 19.3607 131.972 19.3607C141.091 19.3607 150.005 22.0651 157.586 27.1319C165.168 32.1988 171.077 39.4003 174.565 47.8257C178.053 56.251 178.964 65.5216 177.183 74.4649C175.402 83.4082 171.009 91.6222 164.558 98.0682L132.001 130.684Z" stroke="white" stroke-width="2" stroke-linecap="round" stroke-linejoin="round"/>
<path d="M131.831 131.15L165.14 98.5345C171.724 92.0844 180.112 87.6908 189.246 85.9096C198.379 84.1284 207.847 85.0396 216.452 88.5278C225.057 92.0161 232.411 97.9248 237.586 105.506C242.761 113.088 245.523 122.002 245.523 131.121C245.523 140.24 242.761 149.154 237.586 156.736C232.411 164.318 225.057 170.226 216.452 173.714C207.847 177.203 198.379 178.114 189.246 176.333C180.112 174.551 171.723 170.158 165.14 163.708L131.831 131.15Z" stroke="white" stroke-width="2" stroke-linecap="round" stroke-linejoin="round"/>
<path d="M132.149 132.831L164.764 166.14C171.214 172.724 175.608 181.112 177.389 190.246C179.17 199.379 178.259 208.847 174.771 217.452C171.283 226.057 165.374 233.411 157.792 238.586C150.211 243.761 141.297 246.523 132.178 246.523C123.059 246.523 114.145 243.761 106.563 238.586C98.9813 233.411 93.0726 226.057 89.5844 217.452C86.0961 208.847 85.1849 199.379 86.9661 190.246C88.7473 181.112 93.1409 172.723 99.5911 166.14L132.149 132.831Z" stroke="white" stroke-width="2" stroke-linecap="round" stroke-linejoin="round"/>
</svg>
