<svg width="265" height="261" viewBox="0 0 265 261" fill="none" xmlns="http://www.w3.org/2000/svg">
<rect width="265" height="261" fill="black"/>
<path d="M129.716 131.999L95.5285 166.186C88.7719 172.947 80.1619 177.553 70.7877 179.42C61.4134 181.287 51.696 180.332 42.8646 176.675C34.0332 173.019 26.4845 166.826 21.1735 158.878C15.8625 150.931 13.0277 141.588 13.0277 132.029C13.0277 122.471 15.8625 113.127 21.1735 105.18C26.4845 97.2331 34.0332 91.0396 42.8646 87.3832C51.696 83.7268 61.4134 82.7718 70.7877 84.6388C80.162 86.5059 88.7719 91.1112 95.5285 97.8722L129.716 131.999Z" stroke="white" stroke-width="2" stroke-linecap="round" stroke-linejoin="round"/>
<path d="M130 132.716L95.8126 98.5285C89.0516 91.7719 84.4463 83.1619 82.5792 73.7877C80.7122 64.4134 81.6672 54.696 85.3236 45.8646C88.98 37.0332 95.1735 29.4845 103.121 24.1735C111.068 18.8625 120.411 16.0277 129.97 16.0277C139.528 16.0277 148.872 18.8625 156.819 24.1735C164.766 29.4845 170.959 37.0332 174.616 45.8646C178.272 54.696 179.227 64.4134 177.36 73.7877C175.493 83.162 170.888 91.7719 164.127 98.5285L130 132.716Z" stroke="white" stroke-width="2" stroke-linecap="round" stroke-linejoin="round"/>
<path d="M130.546 132.001L165.461 97.8136C172.361 91.0525 181.154 86.4472 190.728 84.5802C200.302 82.7131 210.226 83.6682 219.245 87.3246C228.264 90.981 235.974 97.1744 241.398 105.122C246.822 113.069 249.717 122.412 249.717 131.971C249.717 141.529 246.822 150.873 241.398 158.82C235.974 166.767 228.264 172.96 219.245 176.617C210.226 180.273 200.302 181.228 190.728 179.361C181.154 177.494 172.361 172.889 165.461 166.128L130.546 132.001Z" stroke="white" stroke-width="2" stroke-linecap="round" stroke-linejoin="round"/>
<path d="M129.999 132.284L164.186 166.472C170.947 173.228 175.553 181.838 177.42 191.212C179.287 200.587 178.332 210.304 174.675 219.135C171.019 227.967 164.826 235.515 156.878 240.826C148.931 246.137 139.588 248.972 130.029 248.972C120.471 248.972 111.127 246.137 103.18 240.826C95.2331 235.515 89.0396 227.967 85.3832 219.135C81.7268 210.304 80.7718 200.587 82.6388 191.212C84.5059 181.838 89.1112 173.228 95.8722 166.471L129.999 132.284Z" stroke="white" stroke-width="2" stroke-linecap="round" stroke-linejoin="round"/>
</svg>
